<svg width="270" height="39" viewBox="0 0 270 39" fill="none" xmlns="http://www.w3.org/2000/svg">
<path d="M129.461 3.80573C129.843 2.48137 132.137 0.841652 134.118 3.17745C136.099 5.51324 134.432 7.46464 132.879 9.01691C124.379 14.6223 98.5337 26.1436 58.4999 28.642C18.4662 31.1404 4.8604 23.7327 3.06174 19.7165C0.22207 13.4458 1.35424 1.47732 28.6003 3.76877C62.6578 6.63308 76.9978 40.0808 110.224 36.7545C143.45 33.4282 123.473 11.5671 115.361 28.6051" stroke="#FCDA94" stroke-width="3" stroke-linecap="round"/>
<path d="M140.567 3.81744C140.185 2.49309 137.891 0.853371 135.91 3.18917C133.929 5.52496 135.596 7.47636 137.148 9.02863C145.648 14.634 171.494 26.1553 211.527 28.6537C251.561 31.1522 265.167 23.7444 266.966 19.7282C269.805 13.4575 268.673 1.48904 241.427 3.78049C207.37 6.6448 193.03 40.0925 159.804 36.7662C126.578 33.4399 146.554 11.5788 154.666 28.6168" stroke="#FCDA94" stroke-width="3" stroke-linecap="round"/>
</svg>
